<svg id="meditation" enable-background="new 0 0 300 300" height="512" viewBox="0 0 300 300" width="512" xmlns="http://www.w3.org/2000/svg"><circle cx="134.001" cy="138.735" fill="#efefd2" r="86"/><g fill="#4c241d"><path d="m56.002 48.735c-2.209 0-4-1.791-4-4v-12c0-2.209 1.791-4 4-4s4 1.791 4 4v12c0 2.209-1.791 4-4 4z"/><path d="m56.002 76.735c-2.209 0-4-1.791-4-4v-12c0-2.209 1.791-4 4-4s4 1.791 4 4v12c0 2.209-1.791 4-4 4z"/><path d="m48.002 56.735h-12c-2.209 0-4-1.791-4-4s1.791-4 4-4h12c2.209 0 4 1.791 4 4s-1.791 4-4 4z"/><path d="m76.002 56.735h-12c-2.209 0-4-1.791-4-4s1.791-4 4-4h12c2.209 0 4 1.791 4 4s-1.791 4-4 4z"/><circle cx="220.002" cy="116.736" r="4"/><circle cx="68.002" cy="108.736" r="4"/><circle cx="264.002" cy="48.736" r="4"/><path d="m218.026 76.733c-4.694 0-9.285-2.356-11.932-6.633-1.967-3.181-2.576-6.937-1.718-10.577.858-3.639 3.083-6.727 6.264-8.693s6.94-2.577 10.576-1.718c3.641.858 6.728 3.083 8.694 6.264s2.576 6.937 1.718 10.577c-.858 3.639-3.083 6.727-6.264 8.693-2.286 1.413-4.827 2.087-7.338 2.087zm-5.127-10.841c1.74 2.813 5.445 3.688 8.259 1.948 1.363-.843 2.316-2.166 2.685-3.726.368-1.56.106-3.169-.736-4.532-.843-1.363-2.166-2.317-3.726-2.685-1.562-.369-3.17-.106-4.533.736-1.363.843-2.316 2.167-2.685 3.727-.368 1.559-.107 3.169.736 4.532z"/><path d="m46.026 168.733c-4.694 0-9.285-2.356-11.932-6.633-1.967-3.181-2.576-6.937-1.718-10.577.858-3.639 3.083-6.727 6.264-8.693 3.182-1.967 6.94-2.577 10.576-1.718 3.641.858 6.728 3.083 8.694 6.264s2.576 6.937 1.718 10.577c-.858 3.639-3.083 6.727-6.264 8.693-2.286 1.413-4.827 2.087-7.338 2.087zm-5.127-10.841c1.74 2.813 5.445 3.688 8.259 1.948 1.363-.843 2.316-2.166 2.685-3.726.368-1.56.106-3.169-.736-4.532-.843-1.363-2.166-2.317-3.726-2.685-1.561-.37-3.17-.106-4.533.736-1.363.843-2.316 2.167-2.685 3.727-.368 1.559-.107 3.169.736 4.532z"/></g><path d="m160.968 117.127c-12.161 9.249-28.968 9.361-41.251.275l-.384-.284c-7.127-5.272-11.331-13.612-11.331-22.477v-21.906c0-17.673 14.327-32 32-32 17.673 0 32 14.327 32 32v22.138c-.001 8.735-4.082 16.967-11.034 22.254z" fill="#ffe8dc"/><path d="m140.155 128.092c-8.037 0-16.076-2.488-22.816-7.474l-.382-.282c-8.113-6.002-12.955-15.607-12.955-25.695v-21.906c0-19.851 16.149-36 36-36s36 16.149 36 36v22.138c0 9.921-4.715 19.43-12.611 25.437-6.818 5.185-15.025 7.782-23.236 7.782zm-.153-83.357c-15.439 0-28 12.561-28 28v21.905c0 7.563 3.63 14.763 9.71 19.261l.382.282c10.788 7.98 25.777 7.879 36.453-.241 5.921-4.503 9.455-11.632 9.455-19.07v-22.137c0-15.439-12.561-28-28-28zm20.967 72.392h.01z" fill="#4c241d"/><path d="m192.001 224.735h-104v-58.445c0-22.69 18.394-41.084 41.084-41.084h21.832c22.69 0 41.084 18.394 41.084 41.084z" fill="#ffce56"/><path d="m192.002 228.735h-104c-2.209 0-4-1.791-4-4v-58.445c0-24.859 20.225-45.084 45.084-45.084h21.832c24.859 0 45.084 20.225 45.084 45.084v58.445c0 2.209-1.791 4-4 4zm-100-8h96v-54.445c0-20.448-16.636-37.084-37.084-37.084h-21.832c-20.448 0-37.084 16.636-37.084 37.084z" fill="#4c241d"/><path d="m201.884 213.147c-9.68 0-40.868 2.25-61.647 7.893-20.779-5.644-51.967-7.893-61.647-7.893-14.944 0-27.059 12.115-27.059 27.059s12.115 27.059 27.059 27.059c9.681 0 40.868-7.925 61.647-17.567 20.779 9.643 51.967 17.567 61.647 17.567 14.944 0 27.059-12.115 27.059-27.059s-12.115-27.059-27.059-27.059z" fill="#c1dbdc"/><path d="m201.884 271.265c-10.583 0-41.16-7.996-61.646-17.171-20.487 9.175-51.065 17.171-61.647 17.171-17.126 0-31.059-13.933-31.059-31.059s13.933-31.059 31.059-31.059c8.356 0 39.411 1.917 61.647 7.753 22.235-5.837 53.29-7.753 61.646-7.753 17.126 0 31.059 13.933 31.059 31.059s-13.933 31.059-31.059 31.059zm-61.647-25.567c.575 0 1.149.124 1.684.372 20.454 9.492 50.916 17.195 59.963 17.195 12.715 0 23.059-10.344 23.059-23.059s-10.344-23.059-23.059-23.059c-9.432 0-40.265 2.231-60.598 7.754-.688.187-1.41.187-2.098 0-20.334-5.523-51.167-7.754-60.599-7.754-12.715 0-23.059 10.344-23.059 23.059 0 12.714 10.344 23.059 23.059 23.059 9.047 0 39.51-7.704 59.964-17.195.535-.248 1.109-.372 1.684-.372z" fill="#4c241d"/><path d="m216.001 212.735h-24v-16h40c0 8.837-7.163 16-16 16z" fill="#ffe8dc"/><path d="m216.002 216.735h-24c-2.209 0-4-1.791-4-4v-16c0-2.209 1.791-4 4-4h40c2.209 0 4 1.791 4 4 0 11.028-8.972 20-20 20zm-20-8h20c5.215 0 9.664-3.344 11.314-8h-31.314z" fill="#4c241d"/><path d="m64.001 212.735h24v-16h-40c0 8.837 7.164 16 16 16z" fill="#ffe8dc"/><path d="m88.002 216.735h-24c-11.028 0-20-8.972-20-20 0-2.209 1.791-4 4-4h40c2.209 0 4 1.791 4 4v16c0 2.209-1.791 4-4 4zm-35.315-16c1.65 4.656 6.1 8 11.314 8h20v-8z" fill="#4c241d"/><path d="m88.002 216.735c-2.209 0-4-1.791-4-4 0-2.206 1.786-3.995 3.991-4 .464-.003 38.499-.724 68.773-42.353 1.301-1.788 3.803-2.182 5.588-.882 1.787 1.299 2.182 3.801.883 5.587-32.821 45.129-73.518 45.648-75.235 45.648z" fill="#4c241d"/><path d="m188.002 216.735c-1.717 0-42.414-.519-75.235-45.647-1.299-1.787-.904-4.288.883-5.587 1.784-1.299 4.287-.905 5.588.882 15.844 21.786 33.68 32.135 45.852 36.981 13.216 5.262 22.828 5.371 22.923 5.372 2.205.011 3.99 1.805 3.985 4.01-.007 2.205-1.791 3.989-3.996 3.989z" fill="#4c241d"/><path d="m126.558 84.579c-.265 0-.532-.013-.8-.04-2.27-.227-4.381-1.445-5.791-3.344-1.318-1.773-.949-4.279.824-5.597 1.773-1.316 4.278-.949 5.596.824.084.112.154.152.169.157-.009-.004.07-.051.156-.171 1.295-1.791 3.796-2.189 5.586-.897 1.789 1.295 2.191 3.795.896 5.585-1.602 2.218-4.04 3.483-6.636 3.483z" fill="#4c241d"/><path d="m151.53 84.579c-.266 0-.533-.013-.802-.04-2.269-.227-4.38-1.445-5.79-3.344-1.318-1.773-.949-4.279.824-5.597 1.772-1.316 4.279-.949 5.596.824.084.112.154.152.169.157-.01-.004.068-.051.154-.169 1.295-1.791 3.795-2.191 5.585-.899 1.79 1.293 2.193 3.794.899 5.585-1.602 2.218-4.039 3.483-6.635 3.483z" fill="#4c241d"/></svg>